<svg viewBox="0 0 32 32" fill="none"
    xmlns="http://www.w3.org/2000/svg">
    <rect opacity="0.98" width="100%" height="100%" rx="3" fill="white"/>
    <rect width="100%" height="100%" rx="3" fill="#FF4300"/>
    <path d="M15.6673 22.6842C13.3589 22.4225 11.5265 20.5424 11.2885 18.2341C11.1457 16.8538 11.5741 15.5449 12.407 14.5692C12.5022 14.4502 12.4784 14.2837 12.3594 14.1885L8.88497 11.0234C8.76598 10.9282 8.5994 10.9282 8.50421 11.0472C6.79078 13.0224 5.81507 15.6401 6.02925 18.4958C6.41002 23.6599 10.6698 27.7769 15.8577 27.9911C21.6167 28.2291 26.3525 23.6837 26.519 18.0437C26.519 17.8771 26.4 17.7581 26.2335 17.7581H21.4977C21.3549 17.7581 21.2122 17.8771 21.2122 18.0199C21.0694 20.8042 18.5944 23.0174 15.6673 22.6842Z" fill="white"/>
    <path d="M21.6882 9.38136L19.0942 13.3556C19.0229 13.4746 19.0466 13.6411 19.1418 13.7363C19.9034 14.3075 20.5221 15.0928 20.8553 15.9971C20.9029 16.1399 21.0457 16.1875 21.1884 16.1637L25.6862 14.712C25.8528 14.6644 25.9242 14.4979 25.8528 14.3551C25.1389 12.3085 23.7586 10.5474 22.0214 9.33376C21.95 9.23857 21.7834 9.26237 21.6882 9.38136Z" fill="white"/>
    <path d="M15.0012 5.47834L15.8579 9.61913C15.8817 9.76192 16.0007 9.83331 16.1435 9.83331C17.0002 9.83331 17.8569 9.9285 18.6422 10.1903C18.785 10.2379 18.9278 10.1665 18.9754 10.0475L20.9506 6.28746C21.022 6.14468 20.9744 5.97809 20.8316 5.9067C19.0944 5.07378 17.143 4.78821 15.2392 5.09758C15.0726 5.19277 14.9774 5.31176 15.0012 5.47834Z" fill="white"/>
    <path d="M8.21879 6.3828L10.6938 8.90535C10.7889 9.00054 10.9317 9.02434 11.0507 8.95294C11.6457 8.57218 12.312 8.26281 12.9545 8.07243C13.0973 8.02484 13.1687 7.90585 13.1449 7.78686L12.8355 4.26481C12.8117 4.09822 12.669 3.97923 12.5262 4.00303C10.9317 4.21721 9.40868 4.93114 8.24259 5.97824C8.09981 6.07343 8.09981 6.26381 8.21879 6.3828Z" fill="white"/>
</svg>
